<?xml version="1.0" encoding="UTF-8" standalone="no"?>
<!-- Created with Inkscape (http://www.inkscape.org/) -->
<svg
   xmlns:dc="http://purl.org/dc/elements/1.1/"
   xmlns:cc="http://creativecommons.org/ns#"
   xmlns:rdf="http://www.w3.org/1999/02/22-rdf-syntax-ns#"
   xmlns:svg="http://www.w3.org/2000/svg"
   xmlns="http://www.w3.org/2000/svg"
   xmlns:sodipodi="http://sodipodi.sourceforge.net/DTD/sodipodi-0.dtd"
   xmlns:inkscape="http://www.inkscape.org/namespaces/inkscape"
   width="348.40317"
   height="78.416321"
   id="svg2"
   sodipodi:version="0.32"
   inkscape:version="0.46"
   sodipodi:docname="Centra logo.svg"
   inkscape:output_extension="org.inkscape.output.svg.inkscape"
   version="1.0">
  <defs
     id="defs4">
    <inkscape:perspective
       sodipodi:type="inkscape:persp3d"
       inkscape:vp_x="0 : 526.18109 : 1"
       inkscape:vp_y="0 : 1000 : 0"
       inkscape:vp_z="744.09448 : 526.18109 : 1"
       inkscape:persp3d-origin="372.04724 : 350.78739 : 1"
       id="perspective10" />
    <clipPath
       id="clipPath2716"
       clipPathUnits="userSpaceOnUse">
      <path
         id="path2718"
         d="M 0,0 L 509.717,0 L 509.717,282.945 L 0,282.945 L 0,0 z" />
    </clipPath>
    <clipPath
       id="clipPath2422"
       clipPathUnits="userSpaceOnUse">
      <path
         id="path2424"
         d="M 31.881,125.008 L 110.196,125.008 L 110.196,260.11 L 31.881,260.11 L 31.881,125.008 z" />
    </clipPath>
    <clipPath
       id="clipPath2414"
       clipPathUnits="userSpaceOnUse">
      <path
         id="path2416"
         clip-rule="evenodd"
         d="M 44.485,254.807 C 44.485,254.807 74.442,273.223 86.203,252.367 C 95.967,263.239 115.272,273.445 117.491,240.607 C 113.497,217.976 105.952,207.992 95.967,211.764 C 97.298,201.779 88.866,195.123 88.866,195.123 C 88.866,195.123 102.402,181.589 89.753,169.163 C 96.854,170.495 112.609,154.298 110.39,140.098 C 108.171,125.898 84.206,118.798 73.776,125.454 C 63.347,132.11 66.453,136.992 50.032,136.548 C 33.611,136.104 20.297,144.535 45.372,179.814 C 32.058,183.585 14.527,203.554 34.055,207.104 C 42.266,205.329 44.263,206.439 38.715,213.76 C 33.167,221.082 24.735,233.951 44.485,254.807" />
    </clipPath>
    <clipPath
       id="clipPath2406"
       clipPathUnits="userSpaceOnUse">
      <path
         id="path2408"
         d="M 32.906,125.977 L 109.198,125.977 L 109.198,259.11 L 32.906,259.11 L 32.906,125.977 z" />
    </clipPath>
    <clipPath
       id="clipPath2398"
       clipPathUnits="userSpaceOnUse">
      <path
         id="path2400"
         d="M 21,21 L 488.717,21 L 488.717,261.945 L 21,261.945 L 21,21 z" />
    </clipPath>
    <inkscape:perspective
       id="perspective2390"
       inkscape:persp3d-origin="372.04724 : 350.78739 : 1"
       inkscape:vp_z="744.09448 : 526.18109 : 1"
       inkscape:vp_y="0 : 1000 : 0"
       inkscape:vp_x="0 : 526.18109 : 1"
       sodipodi:type="inkscape:persp3d" />
  </defs>
  <sodipodi:namedview
     id="base"
     pagecolor="#ffffff"
     bordercolor="#666666"
     borderopacity="1.0"
     gridtolerance="10000"
     guidetolerance="10"
     objecttolerance="10"
     inkscape:pageopacity="0.0"
     inkscape:pageshadow="2"
     inkscape:zoom="0.98994949"
     inkscape:cx="462.98965"
     inkscape:cy="237.83259"
     inkscape:document-units="px"
     inkscape:current-layer="layer1"
     showgrid="false"
     inkscape:window-width="640"
     inkscape:window-height="672"
     inkscape:window-x="132"
     inkscape:window-y="138" />
  <metadata
     id="metadata7">
    <rdf:RDF>
      <cc:Work
         rdf:about="">
        <dc:format>image/svg+xml</dc:format>
        <dc:type
           rdf:resource="http://purl.org/dc/dcmitype/StillImage" />
      </cc:Work>
    </rdf:RDF>
  </metadata>
  <g
     inkscape:label="Layer 1"
     inkscape:groupmode="layer"
     id="layer1"
     transform="translate(-215.33564,-689.35873)">
    <g
       id="g3378"
       transform="matrix(6.6758598,0,0,6.6758598,-1222.2149,-3912.7033)">
      <path
         id="path2696"
         style="fill:#f7c70f;fill-opacity:1;fill-rule:nonzero;stroke:none"
         d="M 222.24563,689.3587 C 224.40688,689.3587 225.44188,689.7562 226.03688,689.9912 C 226.09439,690.01495 226.16189,690.0387 226.23188,690.0437 C 226.18563,690.1012 226.16438,690.2037 226.15314,690.26245 C 226.05064,690.76495 225.79938,691.92745 225.69814,692.40245 C 225.67814,692.4962 225.67439,692.55745 225.66939,692.62495 C 225.61064,692.55745 225.55189,692.52245 225.48189,692.4837 C 225.01439,692.22745 224.08314,691.7937 222.78314,691.7937 C 219.84938,691.7937 218.67188,693.78995 218.67188,695.6512 C 218.67188,699.2237 222.61064,698.8587 224.51689,698.0462 C 224.58439,698.01745 224.68814,697.9587 224.74313,697.90995 C 224.71563,697.97495 224.68689,698.0812 224.67564,698.13745 C 224.55938,698.6987 224.17688,700.49245 224.17064,700.51495 C 224.15688,700.5737 224.15688,700.6387 224.16564,700.68245 C 224.10938,700.67245 224.04438,700.6812 223.99563,700.6962 C 223.97688,700.70245 222.67689,701.10495 221.07438,701.10495 C 217.14064,701.10495 215.33564,698.4887 215.33564,695.68745 C 215.33564,692.0637 218.26689,689.3587 222.24563,689.3587" />
      <path
         id="path2698"
         d="M 230.5,692.1875 C 226.75875,692.1875 225.375,695.065 225.375,697.1875 C 225.375,698.42125 225.89875,701.09375 230,701.09375 C 231.0575,701.09375 231.835,700.95872 232.78125,700.6875 C 232.8375,700.67125 232.88502,700.66376 232.9375,700.6875 C 232.92001,700.65625 232.9775,700.56499 233,700.46875 C 233.1025,700.045 233.32875,699.02 233.4375,698.5625 C 233.44875,698.51 233.4625,698.44876 233.5,698.375 C 233.43375,698.43 233.34374,698.47251 233.28125,698.5 C 231.6475,699.21625 228.45874,699.44373 228.28125,697.71875 C 228.28,697.705 228.27874,697.62126 228.25,697.59375 C 228.29374,697.61 228.3125,697.62499 228.375,697.625 L 234,697.625 C 234.07124,697.625 234.115,697.62874 234.15625,697.65625 C 234.14249,697.6075 234.16624,697.52873 234.1875,697.40625 C 234.25125,697.08375 234.375,696.37378 234.375,695.875 C 234.375,693.3775 232.79749,692.18751 230.5,692.1875 z M 230.4375,694.28125 C 231.29876,694.28124 231.85875,694.91875 231.84375,695.625 C 231.8425,695.64625 231.84375,695.675 231.84375,695.71875 C 231.84125,695.80622 231.83999,695.81875 231.84375,695.84375 C 231.7975,695.8225 231.77375,695.84375 231.71875,695.84375 L 228.59375,695.84375 C 228.51501,695.84374 228.45626,695.83125 228.40625,695.84375 C 228.43125,695.82373 228.45874,695.73875 228.5,695.625 C 228.83374,694.69122 229.53625,694.28125 230.4375,694.28125 z"
         style="fill:#f7c70f;fill-opacity:1;fill-rule:nonzero;stroke:none" />
      <path
         id="path2702"
         style="fill:#f7c70f;fill-opacity:1;fill-rule:nonzero;stroke:none"
         d="M 243.45189,700.89995 L 240.69689,700.89995 C 240.59438,700.89995 240.53313,700.8937 240.47689,700.91995 C 240.50938,700.87245 240.52189,700.8212 240.54314,700.71245 C 240.71938,699.8537 241.44314,696.3012 241.48689,696.0937 C 241.66438,695.23495 241.16814,694.7662 240.53813,694.7662 C 239.12813,694.7662 238.62439,695.96745 238.43438,696.85245 C 238.36938,697.15245 237.76939,699.9987 237.61564,700.72995 C 237.59313,700.8387 237.58439,700.88745 237.60314,700.92995 C 237.56188,700.89995 237.49813,700.89995 237.39813,700.89995 L 234.68563,700.89995 C 234.59189,700.89995 234.53438,700.89995 234.49064,700.9187 C 234.51689,700.88745 234.52813,700.8287 234.55064,700.7287 C 234.74438,699.8437 235.76188,695.0762 235.82689,694.7662 C 236.05563,693.6587 236.14689,692.9437 236.17814,692.5512 C 236.18439,692.4837 236.19563,692.41495 236.17188,692.35995 C 236.23314,692.38245 236.28938,692.3787 236.37689,692.3787 C 236.91438,692.3787 238.36064,692.37745 238.89189,692.37745 C 239.03314,692.37745 239.07313,692.35995 239.07313,692.35995 C 239.07313,692.35995 239.04689,692.41245 239.02938,692.5362 C 239.01313,692.63495 238.95064,693.01995 238.88939,693.3837 C 238.87188,693.48995 238.86189,693.5887 238.82439,693.69495 C 238.88189,693.59995 238.95313,693.5112 239.00439,693.45745 C 239.54314,692.89995 240.41438,692.1887 241.99189,692.1887 C 243.70939,692.1887 245.17438,693.5862 244.61564,696.0937 C 244.48439,696.68745 243.85188,699.82745 243.67939,700.6837 C 243.65314,700.8162 243.63313,700.88495 243.65563,700.93495 C 243.60564,700.9037 243.55064,700.89995 243.45189,700.89995" />
      <path
         id="path2704"
         style="fill:#f7c70f;fill-opacity:1;fill-rule:nonzero;stroke:none"
         d="M 251.07438,698.9637 C 250.98689,699.3712 250.78064,700.3537 250.69689,700.7462 C 250.67938,700.82495 250.66438,700.8837 250.68188,700.91995 C 250.64439,700.9012 250.56188,700.92245 250.49438,700.93495 C 250.14439,701.0062 249.50189,701.10495 248.81438,701.10495 C 246.70314,701.10495 245.78189,699.57245 246.14939,697.76995 C 246.29314,697.0587 246.65188,695.3312 246.76939,694.76995 C 246.79189,694.66245 246.79814,694.61495 246.84063,694.57495 C 246.78564,694.59745 246.74688,694.5912 246.62438,694.5912 L 245.44188,694.5912 C 245.32439,694.5912 245.22314,694.61995 245.22314,694.61995 C 245.22314,694.61995 245.27439,694.51995 245.29189,694.4337 L 245.71688,692.5112 C 245.73064,692.4437 245.74313,692.41745 245.72688,692.35745 C 245.78438,692.3762 245.81689,692.3762 245.90939,692.3762 L 247.11938,692.3762 C 247.20814,692.3762 247.24814,692.38245 247.28938,692.41245 C 247.27563,692.36745 247.29314,692.3287 247.31188,692.2337 L 247.62814,690.7737 C 247.64189,690.71245 247.65813,690.6462 247.63439,690.60495 C 247.68063,690.6162 247.72814,690.60495 247.82188,690.5787 L 250.67814,689.78995 C 250.78189,689.76245 250.84064,689.7412 250.90688,689.7012 C 250.87313,689.7562 250.85063,689.82245 250.83189,689.90995 L 250.33189,692.23245 C 250.31189,692.3287 250.30938,692.3562 250.27439,692.4012 C 250.33189,692.3762 250.36314,692.3762 250.46314,692.3762 L 252.22938,692.3762 C 252.30689,692.3762 252.36439,692.37745 252.40813,692.36245 C 252.38313,692.39995 252.37188,692.44995 252.35313,692.5387 L 251.95313,694.43745 C 251.93063,694.53245 251.91939,694.5737 251.93938,694.62495 C 251.88189,694.5937 251.84564,694.59495 251.74939,694.59495 L 249.99688,694.59245 C 249.89439,694.59245 249.85689,694.58995 249.79689,694.56745 C 249.82438,694.61995 249.80814,694.67745 249.79189,694.75495 C 249.65688,695.3812 249.20189,697.5612 249.16188,697.73745 C 248.86314,699.0687 249.92063,699.15495 250.93313,698.87995 C 251.06688,698.83745 251.11813,698.7887 251.15563,698.7512 C 251.12188,698.80745 251.09563,698.87745 251.07438,698.9637" />
      <path
         id="path2706"
         style="fill:#f7c70f;fill-opacity:1;fill-rule:nonzero;stroke:none"
         d="M 254.73189,700.8987 L 251.94189,700.8987 C 251.87564,700.8987 251.79814,700.91495 251.79814,700.91495 C 251.79814,700.91495 251.82939,700.87745 251.85314,700.77745 L 253.13814,694.79745 C 253.38813,693.65745 253.49313,692.9137 253.51314,692.51495 C 253.51689,692.45995 253.52064,692.3862 253.50564,692.35745 C 253.53439,692.36995 253.59563,692.3687 253.65314,692.36995 C 254.19313,692.36995 255.77564,692.3762 256.25188,692.3762 C 256.32314,692.3762 256.37064,692.35995 256.37064,692.35995 C 256.37064,692.35995 256.34188,692.40995 256.33064,692.47495 L 256.12939,693.5787 C 256.10564,693.68995 256.08439,693.7637 256.06063,693.83995 C 256.10064,693.75995 256.16564,693.66245 256.20189,693.6112 C 256.90564,692.59995 257.70689,692.17245 258.65563,692.17245 C 259.07313,692.17245 259.46814,692.2762 259.72188,692.39495 C 259.76439,692.4137 259.81939,692.43495 259.86813,692.43995 C 259.86813,692.43995 259.83938,692.46495 259.81813,692.56495 L 259.28813,695.0412 C 259.27189,695.10745 259.26313,695.21245 259.26313,695.21245 C 259.22814,695.16245 259.18063,695.11495 259.13563,695.0837 C 258.85814,694.8937 258.47063,694.7662 257.89689,694.7662 C 256.59063,694.7662 256.00063,695.63495 255.73064,696.86745 C 255.61314,697.40745 255.04063,700.1212 254.90563,700.7612 C 254.88939,700.84245 254.87939,700.8712 254.89439,700.92245 C 254.85313,700.9012 254.82064,700.8987 254.73189,700.8987" />
      <path
         id="path2708"
         d="M 263.84375,692.1875 C 262.44125,692.1875 261.54124,692.40377 260.875,692.625 C 260.81876,692.645 260.75749,692.66124 260.71875,692.65625 C 260.73126,692.68625 260.73125,692.74252 260.71875,692.8125 C 260.64375,693.22 260.4325,694.29749 260.3125,694.84375 C 260.3,694.9025 260.24999,695 260.25,695 C 260.25,695 260.36125,694.915 260.4375,694.875 C 260.8325,694.6625 261.82874,694.18748 263.09375,694.1875 C 264.12874,694.1875 264.7575,694.50501 264.65625,695.40625 C 264.65126,695.445 264.6375,695.53128 264.65625,695.5625 C 264.61125,695.53375 264.54625,695.50622 264.5,695.5 C 261.50874,695.13375 258.46876,696.04003 258.46875,698.625 C 258.46875,700.5375 259.86,701.09372 261.28125,701.09375 C 262.65999,701.09375 263.50001,700.50625 263.9375,700.03125 C 263.97501,699.98875 264.04626,699.89875 264.09375,699.8125 C 264.05875,699.9025 264.05001,699.99502 264.03125,700.09375 L 263.90625,700.75 C 263.88374,700.86375 263.86749,700.90503 263.84375,700.9375 C 263.8875,700.91625 263.94502,700.90627 264.03125,700.90625 C 264.48626,700.91 265.8175,700.90626 266.34375,700.90625 C 266.41124,700.90625 266.45123,700.91499 266.5,700.9375 C 266.47499,700.90375 266.49499,700.82247 266.5,700.78125 C 266.5525,700.31625 266.74,699.27501 266.8125,699 C 266.89124,698.69875 267.26875,696.84751 267.375,696.375 C 268.15625,692.86 265.70375,692.18753 263.84375,692.1875 z M 263.21875,697.125 C 263.54113,697.10321 263.8825,697.11656 264.1875,697.15625 C 264.23751,697.16122 264.30876,697.19625 264.34375,697.1875 C 264.32377,697.21128 264.29249,697.26625 264.28125,697.3125 C 264.01123,698.38003 263.13126,699.03125 262.3125,699.03125 C 261.77625,699.03127 261.34375,698.77875 261.34375,698.28125 C 261.34374,697.54717 262.2516,697.19038 263.21875,697.125 z"
         style="fill:#f7c70f;fill-opacity:1;fill-rule:nonzero;stroke:none" />
    </g>
  </g>
</svg>
