<?xml version="1.0" encoding="UTF-8" standalone="no"?>
<!-- Created with Inkscape (http://www.inkscape.org/) -->

<svg
   xmlns:dc="http://purl.org/dc/elements/1.1/"
   xmlns:cc="http://creativecommons.org/ns#"
   xmlns:rdf="http://www.w3.org/1999/02/22-rdf-syntax-ns#"
   xmlns:svg="http://www.w3.org/2000/svg"
   xmlns="http://www.w3.org/2000/svg"
   xmlns:sodipodi="http://sodipodi.sourceforge.net/DTD/sodipodi-0.dtd"
   xmlns:inkscape="http://www.inkscape.org/namespaces/inkscape"
   version="1.1"
   id="svg2"
   xml:space="preserve"
   width="358.75995"
   height="48.763729"
   viewBox="0 0 358.75995 48.763731"
   sodipodi:docname="Costcutter.svg"
   inkscape:version="0.92.1 r15371"><metadata
     id="metadata8"><rdf:RDF><cc:Work
         rdf:about=""><dc:format>image/svg+xml</dc:format><dc:type
           rdf:resource="http://purl.org/dc/dcmitype/StillImage" /><dc:title></dc:title></cc:Work></rdf:RDF></metadata><defs
     id="defs6"><clipPath
       clipPathUnits="userSpaceOnUse"
       id="clipPath18"><path
         d="m 1358.166,719.13 h 341.07 v 142.013 h -341.07 z"
         id="path16"
         inkscape:connector-curvature="0" /></clipPath></defs><sodipodi:namedview
     pagecolor="#ffffff"
     bordercolor="#666666"
     borderopacity="1"
     objecttolerance="10"
     gridtolerance="10"
     guidetolerance="10"
     inkscape:pageopacity="0"
     inkscape:pageshadow="2"
     inkscape:window-width="1920"
     inkscape:window-height="1017"
     id="namedview4"
     showgrid="false"
     fit-margin-top="0"
     fit-margin-left="0"
     fit-margin-right="0"
     fit-margin-bottom="0"
     inkscape:zoom="2.601306"
     inkscape:cx="132.80409"
     inkscape:cy="-42.698377"
     inkscape:window-x="-8"
     inkscape:window-y="-8"
     inkscape:window-maximized="1"
     inkscape:current-layer="g10" /><g
     id="g10"
     inkscape:groupmode="layer"
     inkscape:label="A9R18vxcoc_kd2qov_2i0"
     transform="matrix(1.3333333,0,0,-1.3333333,-1858.8513,1101.0254)"><g
       id="g12"><g
         id="g14"
         clip-path="url(#clipPath18)"><g
           id="g20"
           transform="translate(1425.8765,796.8043)"><path
             d="M 0,0 C 0.4,-0.406 0.41,-1.054 0.022,-1.471 -0.852,-2.412 -1.786,-3.262 -2.751,-4 h -10e-4 c -0.973,-0.742 -2.033,-1.391 -3.149,-1.934 -1.136,-0.552 -2.39,-0.973 -3.729,-1.254 -1.331,-0.278 -2.812,-0.42 -4.402,-0.42 -2.532,0 -4.908,0.47 -7.059,1.397 -2.145,0.922 -4.028,2.204 -5.598,3.809 -1.569,1.601 -2.817,3.517 -3.707,5.693 -0.89,2.177 -1.342,4.545 -1.342,7.041 0,2.463 0.443,4.814 1.316,6.987 0.873,2.175 2.119,4.108 3.705,5.744 1.588,1.637 3.495,2.942 5.671,3.882 2.182,0.942 4.62,1.42 7.248,1.42 1.557,0 3.004,-0.133 4.301,-0.396 1.299,-0.263 2.513,-0.64 3.606,-1.121 1.089,-0.478 2.112,-1.057 3.042,-1.72 0.914,-0.654 1.787,-1.378 2.595,-2.155 0.409,-0.393 0.438,-1.037 0.067,-1.465 L -3.88,17.254 c -0.188,-0.217 -0.457,-0.349 -0.745,-0.364 -0.288,-0.017 -0.57,0.086 -0.781,0.283 -1.231,1.142 -2.549,2.077 -3.921,2.777 -1.307,0.668 -2.827,1.006 -4.518,1.006 -1.398,0 -2.703,-0.275 -3.88,-0.815 -1.192,-0.546 -2.235,-1.298 -3.1,-2.233 -0.869,-0.939 -1.552,-2.057 -2.03,-3.323 -0.482,-1.276 -0.726,-2.675 -0.726,-4.16 0,-1.486 0.244,-2.895 0.728,-4.185 0.479,-1.285 1.163,-2.42 2.033,-3.373 0.865,-0.948 1.905,-1.705 3.095,-2.251 1.177,-0.54 2.484,-0.814 3.88,-0.814 1.809,0 3.371,0.343 4.642,1.02 1.345,0.717 2.701,1.709 4.029,2.947 0.42,0.394 1.078,0.38 1.481,-0.029 z"
             style="fill:#114631;fill-opacity:1;fill-rule:nonzero;stroke:none"
             id="path22"
             inkscape:connector-curvature="0" /></g><g
           id="g24"
           transform="translate(1447.7394,805.7736)"><path
             d="m 0,0 c -0.324,0.838 -0.778,1.583 -1.351,2.214 -0.568,0.623 -1.25,1.12 -2.028,1.478 -0.77,0.354 -1.642,0.534 -2.597,0.534 -0.956,0 -1.83,-0.18 -2.599,-0.533 -0.779,-0.359 -1.454,-0.849 -2.004,-1.456 -0.553,-0.611 -0.982,-1.332 -1.273,-2.144 -0.298,-0.833 -0.447,-1.741 -0.447,-2.704 0,-0.957 0.163,-1.877 0.487,-2.732 0.322,-0.849 0.772,-1.589 1.341,-2.201 0.567,-0.611 1.252,-1.104 2.035,-1.464 0.769,-0.355 1.628,-0.533 2.553,-0.533 0.985,0 1.875,0.178 2.644,0.533 0.78,0.359 1.453,0.848 2.002,1.454 0.555,0.611 0.983,1.333 1.274,2.146 0.298,0.831 0.449,1.741 0.449,2.704 C 0.486,-1.751 0.323,-0.841 0,0 m 7.25,2.802 c 0.708,-1.681 1.065,-3.503 1.065,-5.413 0,-1.913 -0.367,-3.737 -1.091,-5.422 -0.72,-1.676 -1.725,-3.164 -2.983,-4.423 -1.261,-1.26 -2.782,-2.273 -4.521,-3.008 -1.747,-0.739 -3.664,-1.113 -5.697,-1.113 -2.002,0 -3.893,0.366 -5.622,1.087 -1.725,0.721 -3.241,1.725 -4.503,2.988 -1.26,1.26 -2.256,2.742 -2.961,4.404 -0.708,1.666 -1.067,3.481 -1.067,5.394 0,1.912 0.367,3.743 1.09,5.441 0.722,1.693 1.725,3.19 2.985,4.45 1.259,1.259 2.772,2.271 4.494,3.007 1.732,0.739 3.642,1.114 5.678,1.114 2.032,0 3.938,-0.366 5.668,-1.087 C 1.511,9.5 3.027,8.494 4.287,7.234 5.549,5.973 6.547,4.481 7.25,2.802"
             style="fill:#114631;fill-opacity:1;fill-rule:nonzero;stroke:none"
             id="path26"
             inkscape:connector-curvature="0" /></g><g
           id="g28"
           transform="translate(1473.3058,805.524)"><path
             d="m 0,0 c -1.218,0.564 -4.11,1.545 -5.843,2.115 -1.785,0.587 -1.365,1.833 -0.978,2.202 0.399,0.382 0.934,0.59 1.921,0.59 0.906,0 1.964,-0.25 3.061,-0.629 C -0.702,3.883 0.441,3.341 1.558,2.667 1.804,2.517 2.102,2.474 2.38,2.548 2.659,2.622 2.896,2.807 3.037,3.057 l 2.245,4.022 c 0.269,0.483 0.122,1.094 -0.34,1.402 -1.387,0.925 -2.941,1.66 -4.619,2.187 -3.028,0.949 -6.142,1.077 -8.8,0.233 -1.199,-0.384 -2.262,-0.952 -3.157,-1.689 -0.911,-0.751 -1.634,-1.673 -2.151,-2.741 -0.519,-1.077 -0.784,-2.458 -0.784,-3.596 0,-2.608 1.236,-5.547 5.049,-7.149 1.093,-0.459 4.297,-1.471 4.97,-1.678 0.819,-0.252 3.211,-0.878 3.211,-2.065 0,-1.29 -1.788,-1.602 -2.77,-1.602 -1.146,0 -2.365,0.237 -3.627,0.705 -1.288,0.478 -2.575,1.192 -3.826,2.124 -0.234,0.175 -0.532,0.245 -0.818,0.194 -0.288,-0.051 -0.543,-0.219 -0.704,-0.463 l -2.525,-3.833 c -0.305,-0.462 -0.203,-1.082 0.234,-1.422 1.645,-1.284 3.456,-2.268 5.383,-2.927 1.927,-0.658 3.859,-0.992 5.743,-0.992 1.373,0 2.684,0.18 3.896,0.533 1.246,0.363 2.348,0.912 3.275,1.629 0.954,0.739 1.71,1.675 2.247,2.784 0.536,1.109 0.807,2.412 0.807,3.878 0,0 -0.018,1.958 -0.943,3.541 C 3.875,-1.886 1.299,-0.602 0,0"
             style="fill:#114631;fill-opacity:1;fill-rule:nonzero;stroke:none"
             id="path30"
             inkscape:connector-curvature="0" /></g><g
           id="g32"
           transform="translate(1497.8711,816.5673)"><path
             d="m 0,0 h -5.573 v 5.715 c 0,0.588 -0.476,1.064 -1.065,1.064 h -5.702 c -0.588,0 -1.064,-0.476 -1.064,-1.064 V 0 h -2.068 c -0.589,0 -1.064,-0.477 -1.064,-1.064 v -4.815 c 0,-0.587 0.475,-1.062 1.064,-1.062 h 2.068 v -11.963 c 0,-1.499 0.197,-2.783 0.586,-3.818 0.407,-1.083 1.005,-1.976 1.781,-2.654 0.761,-0.663 1.668,-1.148 2.693,-1.439 0.972,-0.276 2.034,-0.416 3.156,-0.416 1.144,0 2.18,0.122 3.081,0.365 0.892,0.239 1.744,0.587 2.536,1.036 0.336,0.188 0.542,0.541 0.542,0.925 v 4.628 c 0,0.369 -0.191,0.711 -0.506,0.905 -0.312,0.192 -0.703,0.21 -1.035,0.047 -0.966,-0.485 -1.984,-0.73 -3.029,-0.73 -0.688,0 -1.202,0.151 -1.527,0.449 -0.371,0.338 -0.447,1.047 -0.447,1.583 V -6.941 H 0 c 0.589,0 1.064,0.475 1.064,1.062 v 4.815 C 1.064,-0.477 0.589,0 0,0"
             style="fill:#114631;fill-opacity:1;fill-rule:nonzero;stroke:none"
             id="path34"
             inkscape:connector-curvature="0" /></g><g
           id="g36"
           transform="translate(1592.5022,816.5673)"><path
             d="m 0,0 h -5.574 v 5.715 c 0,0.588 -0.477,1.064 -1.064,1.064 h -5.704 c -0.586,0 -1.064,-0.476 -1.064,-1.064 V 0 h -11.381 v 5.715 c 0,0.588 -0.477,1.064 -1.064,1.064 h -5.703 c -0.587,0 -1.064,-0.476 -1.064,-1.064 V 0 h -2.069 c -0.588,0 -1.063,-0.477 -1.063,-1.064 v -4.815 c 0,-0.587 0.475,-1.062 1.063,-1.062 h 2.069 v -11.963 c 0,-1.499 0.198,-2.783 0.586,-3.818 0.405,-1.083 1.005,-1.975 1.782,-2.652 0.76,-0.665 1.666,-1.15 2.694,-1.441 0.97,-0.276 2.032,-0.416 3.154,-0.416 1.145,0 2.182,0.122 3.081,0.365 0.892,0.239 1.745,0.587 2.537,1.036 0.335,0.188 0.54,0.541 0.54,0.925 v 4.628 c 0,0.369 -0.19,0.711 -0.504,0.905 -0.313,0.192 -0.704,0.21 -1.035,0.047 -0.966,-0.485 -1.985,-0.73 -3.03,-0.73 -0.688,0 -1.201,0.151 -1.527,0.449 -0.37,0.338 -0.447,1.047 -0.447,1.583 v 11.082 h 11.381 v -11.963 c 0,-1.499 0.199,-2.783 0.587,-3.818 0.408,-1.083 1.005,-1.976 1.782,-2.654 0.759,-0.663 1.667,-1.148 2.693,-1.439 0.972,-0.276 2.033,-0.416 3.155,-0.416 1.145,0 2.181,0.122 3.081,0.365 0.891,0.239 1.745,0.587 2.537,1.036 0.334,0.188 0.54,0.541 0.54,0.925 v 4.628 c 0,0.369 -0.191,0.711 -0.504,0.905 -0.312,0.192 -0.703,0.21 -1.035,0.047 -0.966,-0.485 -1.986,-0.73 -3.029,-0.73 -0.689,0 -1.202,0.151 -1.528,0.449 -0.37,0.338 -0.447,1.047 -0.447,1.583 V -6.941 H 0 c 0.587,0 1.064,0.475 1.064,1.062 v 4.815 C 1.064,-0.477 0.587,0 0,0"
             style="fill:#114631;fill-opacity:1;fill-rule:nonzero;stroke:none"
             id="path38"
             inkscape:connector-curvature="0" /></g><g
           id="g40"
           transform="translate(1522.4247,799.011)"><path
             d="m 0,0 c -0.417,0.411 -1.084,0.409 -1.499,-0.006 -0.833,-0.831 -1.559,-1.414 -2.554,-1.992 -0.841,-0.488 -1.95,-0.781 -3.099,-0.781 -0.93,0 -1.784,0.179 -2.543,0.532 -0.771,0.359 -1.445,0.849 -2,1.459 -0.56,0.613 -0.999,1.345 -1.308,2.177 -0.314,0.843 -0.471,1.772 -0.471,2.762 0,0.958 0.157,1.862 0.47,2.688 0.311,0.827 0.74,1.56 1.279,2.177 0.525,0.606 1.165,1.092 1.904,1.448 0.722,0.348 1.527,0.525 2.389,0.525 1.234,0 2.191,-0.287 3.059,-0.737 1.012,-0.524 1.637,-1.024 2.531,-1.972 0.218,-0.23 0.535,-0.372 0.826,-0.376 0.292,0.003 0.57,0.126 0.77,0.341 l 3.505,3.786 c 0.374,0.404 0.379,1.026 0.008,1.435 -1.235,1.368 -2.7,2.486 -4.354,3.321 -1.685,0.852 -3.804,1.283 -6.297,1.283 -1.976,0 -3.842,-0.375 -5.545,-1.116 -1.697,-0.739 -3.184,-1.762 -4.423,-3.041 -1.234,-1.276 -2.212,-2.772 -2.904,-4.446 -0.695,-1.682 -1.047,-3.501 -1.047,-5.408 0,-1.911 0.352,-3.724 1.048,-5.389 0.694,-1.662 1.672,-3.143 2.908,-4.402 1.239,-1.263 2.72,-2.269 4.398,-2.991 1.687,-0.724 3.543,-1.091 5.517,-1.091 2.568,0 4.739,0.476 6.45,1.417 1.658,0.911 3.153,2.112 4.444,3.57 0.375,0.422 0.352,1.065 -0.049,1.461 z"
             style="fill:#114631;fill-opacity:1;fill-rule:nonzero;stroke:none"
             id="path42"
             inkscape:connector-curvature="0" /></g><g
           id="g44"
           transform="translate(1552.4658,816.5673)"><path
             d="M 0,0 H -5.703 C -6.29,0 -6.766,-0.475 -6.766,-1.063 v -13.899 c 0,-1.659 -0.406,-2.892 -1.237,-3.768 -0.818,-0.86 -1.87,-1.278 -3.216,-1.278 -1.358,0 -2.363,0.393 -3.069,1.199 -0.733,0.837 -1.105,2.101 -1.105,3.754 v 13.992 c 0,0.588 -0.474,1.063 -1.062,1.063 h -5.704 c -0.588,0 -1.063,-0.475 -1.063,-1.063 v -15.708 c 0,-3.154 0.86,-5.719 2.552,-7.624 1.727,-1.944 4.174,-2.928 7.275,-2.928 2.112,0 3.889,0.502 5.28,1.494 0.476,0.341 0.925,0.708 1.349,1.099 v -1.016 c 0,-0.587 0.476,-1.064 1.063,-1.064 H 0 c 0.588,0 1.063,0.477 1.063,1.064 V -1.063 C 1.063,-0.475 0.588,0 0,0"
             style="fill:#114631;fill-opacity:1;fill-rule:nonzero;stroke:none"
             id="path46"
             inkscape:connector-curvature="0" /></g><g
           id="g48"
           transform="translate(1613.7273,805.9564)"><path
             d="M 0,0 C -0.09,0.378 -0.206,0.745 -0.343,1.097 -0.605,1.763 -0.959,2.344 -1.398,2.822 -1.831,3.293 -2.355,3.674 -2.959,3.956 -3.545,4.232 -4.235,4.37 -5.009,4.37 -6.462,4.37 -7.625,3.89 -8.561,2.902 -9.307,2.117 -9.825,1.16 -10.129,0 Z M 7.134,2.147 C 7.662,0.43 7.929,-1.389 7.929,-3.261 7.929,-3.534 7.92,-3.805 7.902,-4.075 7.886,-4.343 7.862,-4.622 7.829,-4.92 7.77,-5.459 7.315,-5.868 6.772,-5.868 h -16.795 c 0.183,-0.845 0.953,-2.084 1.773,-2.773 v -10e-4 c 1.09,-0.917 2.395,-1.363 3.989,-1.363 1.235,0 2.306,0.216 3.184,0.641 0.921,0.446 1.85,1.121 2.761,2.004 0.4,0.388 1.031,0.401 1.446,0.032 l 3.319,-2.945 c 0.432,-0.382 0.48,-1.04 0.107,-1.48 -1.272,-1.505 -2.803,-2.725 -4.557,-3.627 -1.78,-0.916 -3.918,-1.38 -6.353,-1.38 -1.904,0 -3.713,0.341 -5.377,1.013 -1.666,0.673 -3.136,1.632 -4.369,2.847 -1.233,1.216 -2.216,2.694 -2.923,4.392 -0.705,1.697 -1.062,3.603 -1.062,5.667 0,1.899 0.321,3.708 0.957,5.38 0.637,1.678 1.55,3.17 2.713,4.433 1.163,1.265 2.556,2.283 4.141,3.024 1.601,0.749 3.389,1.129 5.312,1.129 2.115,0 4.009,-0.398 5.63,-1.182 C 2.284,9.16 3.648,8.088 4.725,6.756 5.786,5.443 6.597,3.891 7.134,2.147"
             style="fill:#114631;fill-opacity:1;fill-rule:nonzero;stroke:none"
             id="path50"
             inkscape:connector-curvature="0" /></g><g
           id="g52"
           transform="translate(1640.429,817.0341)"><path
             d="m 0,0 c -2.432,0.104 -4.492,-0.49 -6.123,-1.768 -0.582,-0.455 -1.116,-0.968 -1.6,-1.536 v 1.775 c 0,0.587 -0.477,1.062 -1.064,1.062 h -5.704 c -0.587,0 -1.064,-0.475 -1.064,-1.062 v -24.684 c 0,-0.587 0.477,-1.063 1.064,-1.063 h 5.704 c 0.587,0 1.064,0.476 1.064,1.063 v 9.396 c 0,6.072 2.828,8.708 7.35,8.708 h 0.327 c 0.588,0 1.063,0.475 1.063,1.062 v 5.985 C 1.017,-0.493 0.569,-0.025 0,0"
             style="fill:#114631;fill-opacity:1;fill-rule:nonzero;stroke:none"
             id="path54"
             inkscape:connector-curvature="0" /></g><g
           id="g56"
           transform="translate(1663.2036,809.7001)"><path
             d="m 0,0 c 0.019,-0.14 -0.018,-0.283 -0.103,-0.395 -1.945,-2.547 -5.005,-4.068 -8.184,-4.068 -2.897,0 -5.674,1.238 -7.624,3.399 -1.972,2.187 -2.892,5.01 -2.589,7.95 0.477,4.613 4.153,8.432 8.743,9.081 3.685,0.523 7.383,-0.991 9.648,-3.95 0.177,-0.233 0.134,-0.565 -0.098,-0.744 L -2.28,9.666 C -2.391,9.58 -2.535,9.541 -2.673,9.559 c -0.142,0.018 -0.27,0.092 -0.355,0.205 -1.47,1.923 -3.871,2.909 -6.262,2.57 -2.974,-0.421 -5.357,-2.897 -5.666,-5.889 -0.197,-1.907 0.399,-3.738 1.679,-5.157 1.265,-1.402 3.067,-2.205 4.945,-2.205 2.091,0 4.092,1.01 5.353,2.7 0.086,0.113 0.212,0.188 0.351,0.209 0.142,0.018 0.284,-0.018 0.397,-0.104 L -0.204,0.352 C -0.093,0.266 -0.019,0.14 0,0"
             style="fill:#114631;fill-opacity:1;fill-rule:nonzero;stroke:none"
             id="path58"
             inkscape:connector-curvature="0" /></g><g
           id="g60"
           transform="translate(1659.3942,812.3478)"><path
             d="m 0,0 c -1.023,-1.436 -2.681,-2.294 -4.434,-2.294 -1.531,0 -3.001,0.655 -4.031,1.797 -1.028,1.14 -1.527,2.672 -1.369,4.204 0.252,2.439 2.196,4.459 4.624,4.802 1.924,0.273 3.804,-0.472 5.023,-1.992 0.1,-0.127 0.147,-0.29 0.128,-0.452 C -0.078,5.902 -0.161,5.755 -0.29,5.654 L -1.92,4.393 c -0.263,-0.204 -0.642,-0.16 -0.85,0.099 -0.411,0.514 -1.018,0.809 -1.664,0.809 -1.163,0 -2.074,-0.951 -2.074,-2.166 0,-1.214 0.911,-2.165 2.074,-2.165 0.714,0 1.38,0.363 1.782,0.971 0.093,0.14 0.239,0.235 0.407,0.263 0.164,0.029 0.335,-0.014 0.468,-0.115 l 1.65,-1.251 C 0.135,0.64 0.191,0.267 0,0"
             style="fill:#ef324d;fill-opacity:1;fill-rule:nonzero;stroke:none"
             id="path62"
             inkscape:connector-curvature="0" /></g></g></g></g></svg>